<?xml version="1.0" standalone="no"?>
<!DOCTYPE svg PUBLIC "-//W3C//DTD SVG 20010904//EN"
 "http://www.w3.org/TR/2001/REC-SVG-20010904/DTD/svg10.dtd">
<svg version="1.0" xmlns="http://www.w3.org/2000/svg"
 width="400.000000pt" height="400.000000pt" viewBox="0 0 400.000000 400.000000"
 preserveAspectRatio="xMidYMid meet">
<metadata>
Created by potrace 1.11, written by Peter Selinger 2001-2013
</metadata>
<g transform="translate(0.000000,400.000000) scale(0.100000,-0.100000)"
fill="#000000" stroke="none">
<path d="M1777 3160 c-86 -22 -162 -76 -203 -146 l-26 -44 -256 -2 -257 -3 -3
-381 -2 -381 -41 -7 c-56 -9 -89 -28 -131 -74 -108 -120 -42 -316 120 -354
l52 -13 2 -360 3 -360 273 -3 c182 -1 272 -6 272 -13 0 -18 61 -102 103 -142
114 -108 305 -137 453 -68 77 36 161 113 193 175 l22 46 307 2 307 3 3 290 2
290 109 -3 c77 -2 127 2 171 13 225 58 390 224 449 449 37 142 20 291 -51 435
-49 97 -171 218 -269 265 -104 49 -211 70 -321 62 l-87 -6 -3 68 -3 67 -412 5
-412 5 -31 47 c-71 107 -216 167 -333 138z m197 -55 c134 -65 196 -244 132
-380 -85 -184 -341 -222 -474 -70 -50 56 -65 94 -70 176 -4 67 -1 84 21 130
37 78 93 132 162 157 47 18 183 10 229 -13z m1248 -310 c141 -29 270 -113 352
-228 57 -80 84 -142 102 -235 18 -94 18 -135 -2 -230 -42 -204 -204 -379 -408
-441 -142 -43 -323 -22 -458 54 -132 74 -244 226 -278 375 -13 59 -12 213 1
270 21 94 78 191 158 271 148 148 333 205 533 164z m-1679 -325 c-65 -63 -173
-166 -240 -228 l-121 -112 -23 19 -24 19 30 34 c17 18 84 89 150 158 67 69
156 162 200 208 l79 82 34 -32 33 -33 -118 -115z m399 0 c4 -36 18 -177 32
-315 14 -137 33 -313 41 -390 8 -77 15 -145 15 -152 0 -7 -19 -11 -55 -10 -65
2 -61 -6 -70 147 -3 58 -15 245 -25 415 -25 390 -25 363 3 368 47 9 52 5 59
-63z m-814 -333 c83 -58 108 -172 56 -252 -33 -51 -61 -72 -116 -86 -119 -32
-230 54 -232 181 -1 50 4 65 29 102 62 89 178 113 263 55z m1477 -274 c10 -14
35 -45 56 -68 l39 -43 -87 -73 c-131 -110 -135 -113 -147 -124 -6 -6 -44 -37
-84 -69 l-73 -59 -39 41 c-45 46 -45 46 -27 64 6 7 55 60 107 118 52 58 115
126 139 152 24 27 51 57 60 68 22 27 35 25 56 -7z m-489 -317 c72 -33 117 -69
160 -128 124 -168 85 -419 -84 -543 -115 -84 -278 -97 -406 -33 -61 31 -143
115 -172 175 -107 228 18 491 264 553 60 15 178 3 238 -24z"/>
</g>
</svg>
