<svg xmlns="http://www.w3.org/2000/svg" viewBox="0 0 750.54 309.25"><title>Asset 10</title><g id="Layer_2" data-name="Layer 2"><g id="Layer_1-2" data-name="Layer 1"><path d="M570.22,237.77H558.41v69.8h11.81V269.68c0-15.17,7-22.83,18.42-22.83,13.49,0,15.31,9.34,15.31,20.11v40.61h11.81V263.46c0-16-6.1-26.86-23-26.86-11.8,0-18.55,5.06-22.57,11.68Zm-54-1.17c-16.22,0-33.47,11-33.47,36.33s17.25,36.32,33.47,36.32,33.47-11,33.47-36.32S532.4,236.6,516.18,236.6m-20.89,36.33c0-19.07,10.12-26,20.89-26s20.89,7.27,20.89,26c0,17.9-10.12,25.95-20.89,25.95s-20.89-7.27-20.89-25.95m-33.14-45.15H474V213.51h-11.8Zm0,79.79H474v-69.8h-11.8Zm-34.25-69.8h-11v9.47h11v42.81c0,14.53,3.11,17.52,16.47,17.52h8.57v-9.86h-6c-6.75,0-7.27-1.82-7.27-9.08V247.24h13.24v-9.47H439.7V220.25H427.9Zm-49.64,71.48c12.46,0,19.59-4,23.87-11.28a75.52,75.52,0,0,0,.91,9.6H415c-1.43-6.62-2-14.53-1.82-26.34l.13-16.09c.13-19.85-8.17-28.8-27.76-28.8-13.5,0-27,8.43-28,23.48h12.2c.52-8.69,6.09-13.88,15.95-13.88,8.83,0,15.83,4.15,15.83,17v1.68c-28.54,3.12-47.22,8.05-47.22,24.52,0,12.85,10.9,20.11,24,20.11m24.13-30.87c0,16.47-10.51,21.53-21.54,21.53-8.43,0-13.49-4.41-13.49-11,0-9.61,13.62-12.85,35-14.92Zm-67.86-5.45c0,18.42-9.86,26.2-20.37,26.2-12.07,0-20-9.21-20-26.2s7.91-26.21,20-26.21c10.51,0,20.37,7.79,20.37,26.21M334,248.8c-4.28-7.4-11.55-12.2-22.84-12.2-16.09,0-29.84,13.49-29.84,36.33,0,23.22,13.75,36.32,29.84,36.32,11.29,0,18.56-4.8,22.84-12.19v10.51h11.8V213.51H334Zm-106.15-11H216.05v69.8h11.81V269.68c0-15.17,7-22.83,18.42-22.83,13.49,0,15.31,9.34,15.31,20.11v40.61H273.4V263.46c0-16-6.1-26.86-23-26.86-11.8,0-18.55,5.06-22.57,11.68Zm-36.24,69.8h11.81v-69.8H191.62v38.4c0,15.18-6.49,22.84-17.77,22.84-13,0-14.66-9.35-14.66-20.12V237.77H147.38V282.4c0,16,6.23,26.85,22.32,26.85,11.54,0,17.9-5.06,21.92-11.67Zm-85.77-71c-16.22,0-33.47,11-33.47,36.33s17.25,36.32,33.47,36.32,33.47-11,33.47-36.32-17.25-36.33-33.47-36.33M85,272.93c0-19.07,10.12-26,20.89-26s20.89,7.27,20.89,26c0,17.9-10.12,25.95-20.89,25.95S85,291.61,85,272.93M6.85,307.57H20.08V264.88H65.23V253.47H20.08V224.92H68V213.51H6.85Z"/><path d="M725.5,131.85h-11v9.47h11v42.81c0,14.53,3.11,17.52,16.47,17.52h8.57v-9.86h-6c-6.75,0-7.27-1.82-7.27-9.09V141.32h13.24v-9.47H737.3V114.33H725.5Zm-60,0h-11.8v69.8h11.8V163.76c0-15.18,7-22.83,18.43-22.83,13.49,0,15.31,9.34,15.31,20.11v40.61h11.8V157.53c0-15.95-6.09-26.85-23-26.85-11.81,0-18.55,5.06-22.58,11.67Zm-53.12,9c12.58,0,19.72,9.86,20.11,19.72H591.37c1-14,10.64-19.72,21-19.72m33,29.84c1.42-22.19-11.16-40-32.57-40-19.07,0-33.86,14-33.86,36.2,0,20.62,12.19,36.46,34.25,36.46,17,0,28.15-10,31.27-21.93h-12.2c-3,6.87-8.69,11.54-19.07,11.54s-21.15-7.26-21.54-22.31Zm-161.7-6.88c0-15.18,6.61-22.83,16.86-22.83,12.85,0,14.92,9.34,14.92,20.11v40.61h11.81V163.76c0-15.18,6.62-22.83,16.87-22.83,12.84,0,14.92,9.34,14.92,20.11v40.61h11.81V157.53c0-15.95-6.36-26.85-22.58-26.85-9.86,0-17.91,3.63-23.49,12.32-3.11-7.78-9.34-12.32-20.11-12.32-10.5,0-17,5.06-21,11.67v-10.5H471.86v69.8h11.81ZM410,167c0-18.43,9.86-26.21,20.37-26.21,12.07,0,20,9.21,20,26.21s-7.91,26.2-20,26.2c-10.51,0-20.37-7.78-20.37-26.2m-11.29-35.16v92.5h11.81V191.14c4.28,7.39,11.55,12.2,22.83,12.2,16.09,0,29.85-13.11,29.85-36.33,0-22.84-13.76-36.33-29.85-36.33-11.28,0-18.55,4.8-22.83,12.19v-11Zm-42.23-1.17c-16.22,0-33.48,11-33.48,36.33s17.26,36.33,33.48,36.33,33.47-11,33.47-36.33-17.25-36.33-33.47-36.33M335.57,167c0-19.08,10.13-25.95,20.89-25.95s20.89,7.26,20.89,25.95c0,17.9-10.12,25.94-20.89,25.94s-20.89-7.26-20.89-25.94m-21.36-59.43H302.4v94.07h11.81ZM258.65,140.8c12.58,0,19.72,9.86,20.11,19.72H237.63c1-14,10.64-19.72,21-19.72m33,29.84c1.42-22.19-11.16-40-32.57-40-19.07,0-33.86,14-33.86,36.2,0,20.62,12.19,36.46,34.25,36.46,17,0,28.15-10,31.27-21.93h-12.2c-3,6.87-8.69,11.54-19.07,11.54s-21.15-7.26-21.54-22.31ZM173.56,131.85h-13.1l26.34,69.8h10.5l26.34-69.8h-12.2L192.5,185.3Zm-47.66,9c12.58,0,19.72,9.86,20.11,19.72H104.88c1-14,10.64-19.72,21-19.72m32.56,29.84c1.43-22.19-11.15-40-32.56-40-19.07,0-33.87,14-33.87,36.2,0,20.62,12.2,36.46,34.26,36.46,17,0,28.15-10,31.27-21.93h-12.2c-3,6.87-8.69,11.54-19.07,11.54s-21.15-7.26-21.54-22.31ZM6.64,107.58v94.07h25.7c29.71,0,51.24-11.29,51.24-47.1s-21.53-47-51.24-47Zm63.45,47c0,32-18.81,35.94-38.14,35.94H19.88V118.74H32c19.33,0,38.14,3.89,38.14,35.81"/><path d="M99.79,8.43H88V25.94H77v9.47H88v42.8c0,14.52,3.11,17.51,16.47,17.51H113V85.86h-6c-6.74,0-7.26-1.82-7.26-9.08V35.41H113V25.94H99.79Z"/><path d="M42.8,41.76,31.91,39.3C23.09,37.35,16.6,33.2,16.6,24.9c0-10.5,12.71-13.75,20-13.75,9.33,0,20.23,3.76,23.34,14.53H72.76C69,7.65,54.08,0,37.09,0c-15.17,0-34,7.65-34,25.68C3.11,41.24,16,48.51,28.92,51.36L40.6,53.82c11.8,2.73,20.23,6.62,20.23,16.6,0,9.34-7.91,15.83-21.92,15.83C24.25,86.25,15.43,79.5,13,66.53H0C2.46,85.21,16.47,97.4,38.65,97.4c18.68,0,35.8-9.86,35.8-28.14C74.45,50.32,57.2,44.87,42.8,41.76Z"/><path d="M148.42,24.77c-19.06,0-33.85,14-33.85,36.19,0,20.62,12.19,36.44,34.24,36.44,17,0,28.15-10,31.26-21.92H167.88c-3,6.88-8.69,11.55-19.07,11.55s-21.14-7.27-21.53-22.31H181C182.4,42.54,169.82,24.77,148.42,24.77Zm-21,29.83c1-14,10.64-19.71,21-19.71,12.58,0,19.72,9.85,20.11,19.71Z"/><path d="M333.66,25.55c-9.21.39-16.21,4.67-19.72,12.58V25.94H302.4V95.72h11.8V59.14c0-15.56,5.45-21.4,16.35-21.4a42,42,0,0,1,6.61.52V25.68A33.91,33.91,0,0,0,333.66,25.55Z"/><path d="M291,69.39l.13-16.09c.13-19.84-8.17-28.79-27.76-28.79-13.48,0-27,8.43-28,23.48h12.19c.52-8.69,6.1-13.88,16-13.88,8.82,0,15.82,4.15,15.82,17v1.69c-28.54,3.11-47.21,8-47.21,24.51,0,12.84,10.89,20.1,24,20.1,12.45,0,19.59-4,23.87-11.28a75.8,75.8,0,0,0,.9,9.6h11.94C291.43,89.1,290.91,81.19,291,69.39Zm-11.1-2.86c0,16.47-10.5,21.53-21.52,21.53-8.44,0-13.49-4.41-13.49-11,0-9.6,13.62-12.84,35-14.92Z"/><rect x="188.92" y="1.66" width="11.8" height="94.06"/><rect x="212.52" y="1.66" width="11.8" height="94.06"/></g></g></svg>